<svg width="500" height="500" viewBox="0 0 500 500" fill="none" xmlns="http://www.w3.org/2000/svg">
<g clip-path="url(#clip0_109_45)">
<path fill-rule="evenodd" clip-rule="evenodd" d="M161.03 167.543C162.852 117.872 164.66 68.5302 164.914 13.182C164.947 5.90433 170.844 0 178.122 0H195.692C202.97 0 208.872 5.9042 208.839 13.1819C208.585 69.3968 206.75 119.415 204.929 169.067L204.926 169.153C203.104 218.819 201.296 268.123 201.042 323.398C201.008 330.675 195.112 336.579 187.834 336.579H170.264C162.986 336.579 157.084 330.675 157.117 323.398C157.371 267.294 159.203 217.343 161.023 167.73L161.03 167.543Z" fill="#5A71F9"/>
<path fill-rule="evenodd" clip-rule="evenodd" d="M335.92 245.509H379.845C379.845 290.689 382.017 335.68 382.898 381.054C383.416 407.743 380.962 436.317 369.643 458.927C341.115 515.909 247.524 510.898 211.766 465.092C183.565 428.966 185.61 361.945 228.625 344.819C277.93 325.188 294.728 367.229 294.728 367.229C294.728 367.229 240.868 340.944 234.097 397.406C229.281 437.567 261.408 461.847 293.276 456.585C339.957 448.877 339.632 415.47 338.981 381.906C338.094 336.204 335.92 291.073 335.92 245.509Z" fill="#9870F1"/>
<path fill-rule="evenodd" clip-rule="evenodd" d="M287.574 44.1611C296 32.8972 302.091 22.5138 305.733 13.3387C308.417 6.57427 315.151 1.5743 322.346 2.66454L339.718 5.29662C346.914 6.38687 351.921 13.1387 349.84 20.1124C344.513 37.9598 334.21 55.1481 322.747 70.4719C308.267 89.8288 290.348 108.285 273.26 124.089C256.1 139.96 239.344 153.555 226.909 163.167C220.677 167.983 215.496 171.825 211.849 174.48C210.024 175.808 208.581 176.841 207.579 177.552C207.317 177.738 207.084 177.903 206.883 178.045C206.498 178.369 205.997 178.788 205.388 179.29C203.926 180.497 201.835 182.19 199.212 184.232C193.979 188.305 186.56 193.817 177.744 199.625C160.63 210.898 136.186 224.683 111.41 229.751C92.9354 233.53 76.7496 226.57 65.8115 216.105C55.2204 205.973 48.4046 191.65 47.4983 177.011L89.0673 163.167C91.6495 204.878 133.799 175.974 153.58 162.943C161.224 157.908 167.692 153.103 172.232 149.57C174.495 147.808 176.261 146.377 177.434 145.408C178.021 144.925 178.458 144.558 178.734 144.324C178.814 144.256 178.881 144.199 178.934 144.154C178.972 144.122 179.002 144.096 179.025 144.076L179.065 144.043L179.074 144.035L179.077 144.032L179.953 143.274L180.911 142.609L180.913 142.608L180.917 142.605L180.963 142.573C181.009 142.541 181.084 142.489 181.189 142.415C181.398 142.269 181.722 142.04 182.156 141.732C183.023 141.117 184.323 140.186 185.998 138.967C189.349 136.528 194.189 132.94 200.048 128.412C211.792 119.335 227.492 106.588 243.435 91.8419C259.451 77.0289 275.283 60.5923 287.574 44.1611Z" fill="#9870F1"/>
<path fill-rule="evenodd" clip-rule="evenodd" d="M50.4755 192.447C42.2262 168.658 50.3264 146.731 67.0456 134.852C82.8149 123.647 104.498 122.026 129.05 127.243C152.813 132.293 178.202 144.123 202.685 156.822C213.268 162.311 223.479 167.846 233.616 173.341C248.256 181.275 262.741 189.127 277.968 196.637C303.088 209.027 326.61 218.556 348.087 222.451C428.826 237.093 415.845 148.009 350.298 161.814C365.126 148.42 382.638 143.499 399.44 146.05C415.543 148.494 429.241 157.499 438.526 168.789C447.763 180.019 454.034 195.26 452.571 211.536C451.021 228.787 441.048 243.986 423.887 253.833C397.165 269.165 368.165 270.734 340.249 265.671C312.673 260.67 284.767 248.968 258.538 236.031C243.001 228.368 226.709 219.553 211.184 211.154C201.152 205.726 191.44 200.471 182.46 195.813C158.202 183.23 137.381 173.919 119.919 170.208C77.3864 161.17 51.4934 182.299 50.4755 192.447Z" fill="#CE7DFB"/>
</g>
<defs>
<clipPath id="clip0_109_45">
<rect width="500" height="500" fill="white"/>
</clipPath>
</defs>
</svg>
